<?xml version="1.0" encoding="UTF-8" standalone="no"?>
<!-- Created with Inkscape (http://www.inkscape.org/) -->

<svg
   xmlns:ns0="http://www.iki.fi/pav/software/textext/"
   xmlns:dc="http://purl.org/dc/elements/1.1/"
   xmlns:cc="http://creativecommons.org/ns#"
   xmlns:rdf="http://www.w3.org/1999/02/22-rdf-syntax-ns#"
   xmlns:svg="http://www.w3.org/2000/svg"
   xmlns="http://www.w3.org/2000/svg"
   xmlns:sodipodi="http://sodipodi.sourceforge.net/DTD/sodipodi-0.dtd"
   xmlns:inkscape="http://www.inkscape.org/namespaces/inkscape"
   sodipodi:docname="dmri_process.svg"
   inkscape:version="0.48.2 r9819"
   version="1.1"
   id="svg2"
   height="809.98468"
   width="1313.4686">
  <sodipodi:namedview
     id="base"
     pagecolor="#ffffff"
     bordercolor="#666666"
     borderopacity="1.0"
     inkscape:pageopacity="0.0"
     inkscape:pageshadow="2"
     inkscape:zoom="0.7"
     inkscape:cx="400.52535"
     inkscape:cy="187.50552"
     inkscape:document-units="px"
     inkscape:current-layer="svg2"
     showgrid="false"
     inkscape:window-width="1920"
     inkscape:window-height="1170"
     inkscape:window-x="0"
     inkscape:window-y="0"
     inkscape:window-maximized="1"
     fit-margin-top="0"
     fit-margin-left="0"
     fit-margin-right="0"
     fit-margin-bottom="0" />
  <defs
     id="defs4">
    <marker
       inkscape:stockid="Arrow1Lend"
       orient="auto"
       refY="0"
       refX="0"
       id="Arrow1Lend"
       style="overflow:visible">
      <path
         id="path3975"
         d="M 0,0 5,-5 -12.5,0 5,5 0,0 z"
         style="fill-rule:evenodd;stroke:#000000;stroke-width:1pt;marker-start:none"
         transform="matrix(-0.8,0,0,-0.8,-10,0)"
         inkscape:connector-curvature="0" />
    </marker>
    <marker
       inkscape:stockid="Arrow1Mend"
       orient="auto"
       refY="0"
       refX="0"
       id="Arrow1Mend"
       style="overflow:visible">
      <path
         id="path3981"
         d="M 0,0 5,-5 -12.5,0 5,5 0,0 z"
         style="fill-rule:evenodd;stroke:#000000;stroke-width:1pt;marker-start:none"
         transform="matrix(-0.4,0,0,-0.4,-4,0)"
         inkscape:connector-curvature="0" />
    </marker>
  </defs>
  <metadata
     id="metadata7">
    <rdf:RDF>
      <cc:Work
         rdf:about="">
        <dc:format>image/svg+xml</dc:format>
        <dc:type
           rdf:resource="http://purl.org/dc/dcmitype/StillImage" />
        <dc:title />
      </cc:Work>
    </rdf:RDF>
  </metadata>
  <g
     inkscape:label="Layer 1"
     inkscape:groupmode="layer"
     id="layer1"
     transform="translate(904.72449,194.92877)">
    <rect
       style="opacity:0.5;fill:#8cafdc;fill-opacity:1;stroke:#000000;stroke-width:1.95799994;stroke-miterlimit:4;stroke-opacity:1;stroke-dasharray:none;stroke-dashoffset:0"
       id="rect3083"
       width="308.57144"
       height="61.42857"
       x="-269.84357"
       y="0.17207566"
       inkscape:connector-avoid="true" />
    <text
       xml:space="preserve"
       style="font-size:24px;font-style:normal;font-variant:normal;font-weight:normal;font-stretch:normal;line-height:125%;letter-spacing:0px;word-spacing:0px;writing-mode:lr-tb;opacity:0.5;fill:#000000;fill-opacity:1;stroke:none;font-family:Verdana;-inkscape-font-specification:Verdana"
       x="-243.02856"
       y="37.589481"
       id="text3085"
       sodipodi:linespacing="125%"><tspan
         sodipodi:role="line"
         id="tspan3087"
         x="-243.02856"
         y="37.589481">Perturbation analysis</tspan></text>
    <g
       id="g3884"
       transform="translate(0,105.05586)">
      <rect
         y="-137.67053"
         x="-490.11588"
         height="58.75573"
         width="237.32715"
         id="rect2985"
         style="fill:#dccc8c;fill-opacity:1;stroke:#000000;stroke-width:1.58712816;stroke-miterlimit:4;stroke-opacity:1;stroke-dasharray:none;stroke-dashoffset:0" />
      <text
         sodipodi:linespacing="125%"
         id="text2987"
         y="-101.92353"
         x="-468.57144"
         style="font-size:24px;font-style:normal;font-variant:normal;font-weight:normal;font-stretch:normal;line-height:125%;letter-spacing:0px;word-spacing:0px;writing-mode:lr-tb;fill:#000000;fill-opacity:1;stroke:none;font-family:Verdana;-inkscape-font-specification:Verdana"
         xml:space="preserve"><tspan
           id="tspan2991"
           y="-101.92353"
           x="-468.57144"
           sodipodi:role="line">Data acquisition</tspan></text>
    </g>
    <g
       id="g3896"
       transform="translate(-0.18521118,105.05586)">
      <rect
         style="fill:#dccc8c;fill-opacity:1;stroke:#000000;stroke-width:1.95755577;stroke-miterlimit:4;stroke-opacity:1;stroke-dasharray:none;stroke-dashoffset:0"
         id="rect3039"
         width="237.32715"
         height="89.382912"
         x="-489.93066"
         y="9.4494667" />
      <text
         xml:space="preserve"
         style="font-size:24px;font-style:normal;font-variant:normal;font-weight:normal;font-stretch:normal;line-height:125%;letter-spacing:0px;word-spacing:0px;writing-mode:lr-tb;fill:#000000;fill-opacity:1;stroke:none;font-family:Verdana;-inkscape-font-specification:Verdana"
         x="-458.22607"
         y="48.076469"
         id="text3041"
         sodipodi:linespacing="125%"><tspan
           sodipodi:role="line"
           x="-458.22607"
           y="48.076469"
           id="tspan3043">PDF to sample</tspan><tspan
           id="tspan3069"
           sodipodi:role="line"
           x="-458.22607"
           y="78.076469">conversion</tspan></text>
    </g>
    <rect
       y="314.45779"
       x="-241.27214"
       height="61.42857"
       width="357.91165"
       id="rect3912"
       style="opacity:0.5;fill:#8cafdc;fill-opacity:1;stroke:#000000;stroke-width:2.10873842;stroke-miterlimit:4;stroke-opacity:1;stroke-dasharray:none;stroke-dashoffset:0" />
    <g
       id="g5023"
       transform="translate(-1.4285714,2.8571429)">
      <rect
         style="opacity:0.5;fill:#8cafdc;fill-opacity:1;stroke:#000000;stroke-width:2.85634947;stroke-miterlimit:4;stroke-opacity:1;stroke-dasharray:none;stroke-dashoffset:0"
         id="rect5009"
         width="308.57144"
         height="130.72774"
         x="-806.27966"
         y="309.00436"
         inkscape:connector-avoid="true" />
      <text
         xml:space="preserve"
         style="font-size:24px;font-style:normal;font-variant:normal;font-weight:normal;font-stretch:normal;line-height:125%;letter-spacing:0px;word-spacing:0px;writing-mode:lr-tb;opacity:0.5;fill:#000000;fill-opacity:1;stroke:none;font-family:Verdana;-inkscape-font-specification:Verdana"
         x="-777.31427"
         y="353.30377"
         id="text5011"
         sodipodi:linespacing="125%"><tspan
           id="tspan5015"
           sodipodi:role="line"
           x="-777.31427"
           y="353.30377">Spectral initialization</tspan><tspan
           id="tspan5019"
           sodipodi:role="line"
           x="-777.31427"
           y="383.30377">of EM fitting of</tspan><tspan
           id="tspan5021"
           sodipodi:role="line"
           x="-777.31427"
           y="413.30377">v. M. mixture model</tspan></text>
    </g>
    <g
       id="g6630"
       transform="translate(10.000017,-352.85714)">
      <rect
         inkscape:connector-avoid="true"
         y="526.14722"
         x="-817.70825"
         height="130.72774"
         width="308.57144"
         id="rect6598"
         style="opacity:0.5;fill:#8cafdc;fill-opacity:1;stroke:#000000;stroke-width:2.85634947;stroke-miterlimit:4;stroke-opacity:1;stroke-dasharray:none;stroke-dashoffset:0" />
      <text
         sodipodi:linespacing="125%"
         id="text6600"
         y="570.50525"
         x="-798.65106"
         style="font-size:24px;font-style:normal;font-variant:normal;font-weight:normal;font-stretch:normal;line-height:125%;letter-spacing:0px;word-spacing:0px;writing-mode:lr-tb;opacity:0.5;fill:#000000;fill-opacity:1;stroke:none;font-family:Verdana;-inkscape-font-specification:Verdana"
         xml:space="preserve"><tspan
           id="tspan6622"
           y="570.50525"
           x="-798.65106"
           sodipodi:role="line">Sparse coeff methods:</tspan><tspan
           id="tspan6626"
           y="600.50525"
           x="-798.65106"
           sodipodi:role="line">under-determined vs</tspan><tspan
           id="tspan6628"
           y="630.50525"
           x="-798.65106"
           sodipodi:role="line">over-determined</tspan></text>
    </g>
    <rect
       style="fill:#dccc8c;fill-opacity:1;stroke:#000000;stroke-width:1.58700001;stroke-miterlimit:4;stroke-opacity:1;stroke-dasharray:none;stroke-dashoffset:0"
       id="rect3045"
       width="269.73404"
       height="89.300812"
       x="-506.31934"
       y="253.45561" />
    <text
       xml:space="preserve"
       style="font-size:24px;font-style:normal;font-variant:normal;font-weight:normal;font-stretch:normal;line-height:125%;letter-spacing:0px;word-spacing:0px;writing-mode:lr-tb;fill:#000000;fill-opacity:1;stroke:none;font-family:Verdana;-inkscape-font-specification:Verdana"
       x="-491.48746"
       y="289.80914"
       id="text3047"
       sodipodi:linespacing="125%"><tspan
         sodipodi:role="line"
         x="-491.48746"
         y="289.80914"
         id="tspan3049">Kernel / component</tspan><tspan
         sodipodi:role="line"
         x="-491.48746"
         y="319.80914"
         id="tspan3071">representation</tspan></text>
    <rect
       y="385.18304"
       x="-490.11588"
       height="58.75573"
       width="237.32715"
       id="rect3057"
       style="fill:#dccc8c;fill-opacity:1;stroke:#000000;stroke-width:1.58712816;stroke-miterlimit:4;stroke-opacity:1;stroke-dasharray:none;stroke-dashoffset:0" />
    <text
       sodipodi:linespacing="125%"
       id="text3059"
       y="421.26404"
       x="-454.55582"
       style="font-size:24px;font-style:normal;font-variant:normal;font-weight:normal;font-stretch:normal;line-height:125%;letter-spacing:0px;word-spacing:0px;writing-mode:lr-tb;fill:#000000;fill-opacity:1;stroke:none;font-family:Verdana;-inkscape-font-specification:Verdana"
       xml:space="preserve"><tspan
         id="tspan3061"
         y="421.26404"
         x="-454.55582"
         sodipodi:role="line">Fiber analysis</tspan></text>
    <g
       id="g3862"
       transform="translate(5.1614685,110)">
      <rect
         y="387.27005"
         x="-495.27734"
         height="58.75573"
         width="237.32715"
         id="rect3063"
         style="fill:#dccc8c;fill-opacity:1;stroke:#000000;stroke-width:1.58712816;stroke-miterlimit:4;stroke-opacity:1;stroke-dasharray:none;stroke-dashoffset:0" />
      <text
         sodipodi:linespacing="125%"
         id="text3065"
         y="423.28659"
         x="-454.58447"
         style="font-size:24px;font-style:normal;font-variant:normal;font-weight:normal;font-stretch:normal;line-height:125%;letter-spacing:0px;word-spacing:0px;writing-mode:lr-tb;fill:#000000;fill-opacity:1;stroke:none;font-family:Verdana;-inkscape-font-specification:Verdana"
         xml:space="preserve"><tspan
           id="tspan3067"
           y="423.28659"
           x="-454.58447"
           sodipodi:role="line">Tractography</tspan></text>
    </g>
    <g
       id="g5004"
       transform="translate(0.9825592,0)">
      <rect
         y="370.12717"
         x="169.19359"
         height="87.993668"
         width="237.32715"
         id="rect3073"
         style="fill:#8cdc8c;fill-opacity:1;stroke:#000000;stroke-width:1.94228339;stroke-miterlimit:4;stroke-opacity:1;stroke-dasharray:none;stroke-dashoffset:0" />
      <text
         sodipodi:linespacing="125%"
         id="text3075"
         y="423.05954"
         x="194.51146"
         style="font-size:24px;font-style:normal;font-variant:normal;font-weight:normal;font-stretch:normal;line-height:125%;letter-spacing:0px;word-spacing:0px;writing-mode:lr-tb;fill:#000000;fill-opacity:1;stroke:none;font-family:Verdana;-inkscape-font-specification:Verdana"
         xml:space="preserve"><tspan
           id="tspan3079"
           y="423.05954"
           x="194.51146"
           sodipodi:role="line">Fibre directions</tspan></text>
    </g>
    <text
       sodipodi:linespacing="125%"
       id="text3914"
       y="351.64084"
       x="-215.02335"
       style="font-size:24px;font-style:normal;font-variant:normal;font-weight:normal;font-stretch:normal;line-height:125%;letter-spacing:0px;word-spacing:0px;writing-mode:lr-tb;opacity:0.5;fill:#000000;fill-opacity:1;stroke:none;font-family:Verdana;-inkscape-font-specification:Verdana"
       xml:space="preserve"><tspan
         y="351.64084"
         x="-215.02335"
         id="tspan3916"
         sodipodi:role="line">Compare SPH vs v. Mises</tspan></text>
    <g
       id="g4997">
      <rect
         style="fill:#8cdc8c;fill-opacity:1;stroke:#000000;stroke-width:2.48163199;stroke-miterlimit:4;stroke-opacity:1;stroke-dasharray:none;stroke-dashoffset:0"
         id="rect3920"
         width="237.32715"
         height="143.64847"
         x="170.17615"
         y="132.56554" />
      <text
         xml:space="preserve"
         style="font-size:24px;font-style:normal;font-variant:normal;font-weight:normal;font-stretch:normal;line-height:125%;letter-spacing:0px;word-spacing:0px;writing-mode:lr-tb;fill:#000000;fill-opacity:1;stroke:none;font-family:Verdana;-inkscape-font-specification:Verdana"
         x="221.63855"
         y="182.93274"
         id="text3922"
         sodipodi:linespacing="125%"><tspan
           sodipodi:role="line"
           x="221.63855"
           y="182.93274"
           id="tspan3924">Dense PDF</tspan><tspan
           id="tspan4988"
           sodipodi:role="line"
           x="221.63855"
           y="212.93274">in terms of</tspan><tspan
           id="tspan4990"
           sodipodi:role="line"
           x="221.63855"
           y="242.93274">mixture</tspan></text>
    </g>
    <path
       style="fill:none;stroke:#d41c1c;stroke-width:3;stroke-linecap:butt;stroke-linejoin:miter;stroke-miterlimit:4;stroke-opacity:1;stroke-dasharray:none"
       d="m 108.08632,-277.04809 0.48511,806.98469"
       id="path3945"
       inkscape:connector-curvature="0"
       sodipodi:nodetypes="cc"
       transform="translate(38.400001,83.619323)" />
    <text
       xml:space="preserve"
       style="font-size:24px;font-style:normal;font-variant:normal;font-weight:normal;font-stretch:normal;line-height:125%;letter-spacing:0px;word-spacing:0px;writing-mode:lr-tb;fill:#000000;fill-opacity:1;stroke:none;font-family:Verdana;-inkscape-font-specification:Verdana"
       x="141.42136"
       y="-201.28665"
       id="text3947"
       sodipodi:linespacing="125%"
       transform="translate(38.400001,83.619323)"><tspan
         sodipodi:role="line"
         id="tspan3949"
         x="141.42136"
         y="-201.28665"
         style="font-size:36px">Outputs</tspan></text>
    <text
       sodipodi:linespacing="125%"
       id="text3951"
       y="-117.70248"
       x="-493.26492"
       style="font-size:24px;font-style:normal;font-variant:normal;font-weight:normal;font-stretch:normal;line-height:125%;letter-spacing:0px;word-spacing:0px;writing-mode:lr-tb;fill:#000000;fill-opacity:1;stroke:none;font-family:Verdana;-inkscape-font-specification:Verdana"
       xml:space="preserve"><tspan
         style="font-size:36px"
         y="-117.70248"
         x="-493.26492"
         id="tspan3953"
         sodipodi:role="line">Steps</tspan></text>
    <path
       style="fill:none;stroke:#000000;stroke-width:1px;stroke-linecap:butt;stroke-linejoin:miter;stroke-opacity:1;marker-end:url(#Arrow1Lend);display:inline"
       d="M -274.9853,189.16793 130.61601,113.02387"
       id="path3965"
       inkscape:connector-type="polyline"
       inkscape:connector-curvature="0"
       transform="translate(38.400001,83.619323)"
       inkscape:connection-start="#rect3045"
       inkscape:connection-start-point="d4" />
    <path
       style="fill:none;stroke:#000000;stroke-width:1px;stroke-linecap:butt;stroke-linejoin:miter;stroke-opacity:1;marker-end:url(#Arrow1Lend)"
       d="m -371.4523,26.141057 0,88.364273"
       id="path4787"
       inkscape:connector-type="polyline"
       inkscape:connector-curvature="0"
       inkscape:connection-start="#g3884"
       inkscape:connection-start-point="d4"
       inkscape:connection-end="#g3896"
       inkscape:connection-end-point="d4" />
    <path
       style="fill:none;stroke:#000000;stroke-width:1px;stroke-linecap:butt;stroke-linejoin:miter;stroke-opacity:1;marker-end:url(#Arrow1Lend)"
       d="m -371.45231,203.88824 0,49.56737"
       id="path4791"
       inkscape:connector-type="polyline"
       inkscape:connector-curvature="0"
       inkscape:connection-start="#g3896"
       inkscape:connection-start-point="d4"
       inkscape:connection-end="#rect3045"
       inkscape:connection-end-point="d4" />
    <path
       style="fill:none;stroke:#000000;stroke-width:1px;stroke-linecap:butt;stroke-linejoin:miter;stroke-opacity:1;marker-end:url(#Arrow1Lend)"
       d="m -371.45231,342.75642 1e-5,42.42662"
       id="path4793"
       inkscape:connector-type="polyline"
       inkscape:connector-curvature="0"
       inkscape:connection-start="#rect3045"
       inkscape:connection-start-point="d4"
       inkscape:connection-end="#rect3057"
       inkscape:connection-end-point="d4" />
    <path
       style="fill:none;stroke:#000000;stroke-width:1px;stroke-linecap:butt;stroke-linejoin:miter;stroke-opacity:1;marker-end:url(#Arrow1Lend)"
       d="m -409.8523,360.31945 0,53.33128"
       id="path4795"
       inkscape:connector-type="polyline"
       inkscape:connector-curvature="0"
       inkscape:connection-start="#rect3057"
       inkscape:connection-start-point="d4"
       inkscape:connection-end="#g3862"
       inkscape:connection-end-point="d4"
       transform="translate(38.400001,83.619323)" />
    <path
       style="fill:none;stroke:#000000;stroke-width:1px;stroke-linecap:butt;stroke-linejoin:miter;stroke-opacity:1;marker-end:url(#Arrow1Lend)"
       d="m 254.32411,609.41116 422.96488,-0.27987"
       id="path6303"
       inkscape:connector-type="polyline"
       inkscape:connector-curvature="0"
       inkscape:connection-start="#rect3057"
       inkscape:connection-start-point="d4"
       inkscape:connection-end="#g5004"
       inkscape:connection-end-point="d4"
       transform="translate(-507.11284,-194.92877)" />
  </g>
  <g
     style="font-style:normal;font-variant:normal;font-weight:normal;font-stretch:normal;letter-spacing:normal;word-spacing:normal;text-anchor:start;fill:none;stroke:#000000;stroke-width:0.0000001;stroke-linecap:butt;stroke-linejoin:miter;stroke-miterlimit:10.43299961;stroke-opacity:1;stroke-dasharray:none;stroke-dashoffset:0"
     ns0:page_width=""
     ns0:preamble="/home/stefan/akad/postdoc/dif-sbir/src/phantom/dmri_process.preamble"
     ns0:text="$\n\\underset{\\mathbf{f}}{\\arg \\min}\n\\left \\Vert K \\mathbf{f} - \\mathbf{E} \\right \\Vert _2^2 + \n\\lambda \\left \\Vert \\mathbf{f} \\right \\Vert _1\n$"
     word-spacing="normal"
     letter-spacing="normal"
     font-size-adjust="none"
     font-stretch="normal"
     font-weight="normal"
     font-variant="normal"
     font-style="normal"
     stroke-miterlimit="10.433"
     xml:space="preserve"
     transform="matrix(3.125,0,0,-3.125,-669.53129,2545)"
     id="content">
<path
   id="path6164"
   d="m 226.75,707.88 0.01,-0.04 0,-0.03 0.01,-0.04 0.01,-0.04 0.01,-0.04 0.01,-0.03 0.01,-0.04 0.01,-0.03 0.02,-0.04 0.01,-0.03 0.02,-0.04 0.02,-0.03 0.02,-0.03 0.02,-0.04 0.03,-0.03 0.02,-0.03 0.02,-0.02 0.03,-0.03 0.03,-0.03 0.03,-0.02 0.03,-0.02 0.03,-0.03 0.03,-0.02 0.04,-0.01 0.03,-0.02 0.04,-0.01 0.03,-0.02 0.04,-0.01 0.04,0 0.04,-0.01 0.05,0 0.04,0 c 0.21,0 0.82,0.14 0.82,0.94 v 0.56 h -0.25 v -0.56 c 0,-0.58 -0.25,-0.64 -0.36,-0.64 -0.33,0 -0.37,0.45 -0.37,0.5 v 1.99 c 0,0.42 0,0.81 -0.36,1.18 -0.39,0.38 -0.89,0.54 -1.36,0.54 -0.82,0 -1.51,-0.46 -1.51,-1.12 0,-0.3 0.2,-0.47 0.46,-0.47 0.28,0 0.46,0.2 0.46,0.46 0,0.12 -0.05,0.45 -0.51,0.46 0.27,0.35 0.76,0.45 1.07,0.45 0.49,0 1.06,-0.38 1.06,-1.27 v -0.37 -0.21 -0.99 c 0,-0.95 -0.72,-1.29 -1.17,-1.29 -0.48,0 -0.89,0.35 -0.89,0.85 0,0.55 0.42,1.37 2.06,1.43 h 0 v 0.21 c -0.51,-0.03 -1.2,-0.06 -1.83,-0.36 -0.75,-0.33 -1,-0.85 -1,-1.29 0,-0.81 0.97,-1.05 1.6,-1.05 0.65,0 1.11,0.39 1.3,0.86 z"
   inkscape:connector-curvature="0"
   style="fill:#000000;stroke-width:0" />
<path
   id="path6166"
   d="m 230.08,710.43 v 1.09 l -1.39,-0.11 v -0.3 c 0.7,0 0.78,-0.07 0.78,-0.56 v -2.67 c 0,-0.45 -0.11,-0.45 -0.78,-0.45 v -0.31 c 0.39,0.02 0.86,0.04 1.14,0.04 0.4,0 0.87,0 1.27,-0.04 v 0.31 h -0.22 c -0.73,0 -0.75,0.11 -0.75,0.47 v 1.53 c 0,0.99 0.42,1.87 1.17,1.87 0.07,0 0.09,0 0.11,-0.01 -0.03,-0.01 -0.23,-0.12 -0.23,-0.38 0,-0.28 0.21,-0.43 0.43,-0.43 0.18,0 0.43,0.12 0.43,0.44 0,0.31 -0.31,0.6 -0.74,0.6 -0.72,0 -1.08,-0.66 -1.22,-1.09 z"
   inkscape:connector-curvature="0"
   style="fill:#000000;stroke-width:0" />
<path
   id="path6168"
   d="m 233.37,708.45 0,0 0,0.01 0,0 0,0.01 0,0.01 0,0.01 0,0.01 0,0.01 0.01,0.01 0,0.01 0,0.02 0,0.01 0,0.02 0.01,0.01 0,0.02 0,0.01 0.01,0.02 0,0.02 0.01,0.01 0,0.02 0.01,0.02 0.01,0.02 0.01,0.02 0,0.01 0.01,0.02 0.01,0.02 0.01,0.02 0.02,0.02 0.01,0.02 0.01,0.02 0.02,0.02 0.01,0.02 c 0.39,-0.28 0.8,-0.31 0.99,-0.31 v 0.23 c -0.87,0 -0.87,0.99 -0.87,1.22 0,0.27 0.01,0.59 0.16,0.84 0.08,0.12 0.31,0.39 0.71,0.39 0.87,0 0.87,-0.99 0.87,-1.22 0,-0.27 -0.01,-0.59 -0.16,-0.84 -0.08,-0.11 -0.31,-0.39 -0.71,-0.39 h 0 v -0.23 c 0.93,0 1.61,0.68 1.61,1.45 0,0.37 -0.16,0.74 -0.4,0.97 0.35,0.33 0.71,0.38 0.89,0.38 0.02,0 0.07,0 0.1,0 -0.11,-0.05 -0.16,-0.15 -0.16,-0.27 0,-0.17 0.13,-0.29 0.29,-0.29 0.1,0 0.29,0.07 0.29,0.3 0,0.17 -0.12,0.48 -0.51,0.48 -0.2,0 -0.64,-0.06 -1.05,-0.46 -0.42,0.32 -0.84,0.35 -1.06,0.35 -0.93,0 -1.62,-0.68 -1.62,-1.45 0,-0.44 0.22,-0.81 0.47,-1.02 -0.13,-0.15 -0.31,-0.48 -0.31,-0.83 0,-0.31 0.13,-0.69 0.44,-0.89 -0.6,-0.17 -0.91,-0.59 -0.91,-0.99 0,-0.72 0.98,-1.26 2.2,-1.26 l 0.01,0.22 c -1.01,0 -1.7,0.51 -1.7,1.04 0,0.46 0.38,0.82 0.82,0.86 h 0.59 c 0.86,0 1.97,0 1.97,-0.86 0,-0.54 -0.7,-1.04 -1.68,-1.04 h 0 l -0.01,-0.22 c 1.17,0 2.21,0.5 2.21,1.28 0,0.35 -0.14,0.86 -0.65,1.13 -0.53,0.28 -1.1,0.28 -1.71,0.28 -0.25,0 -0.68,0 -0.75,0.01 -0.32,0.04 -0.53,0.35 -0.53,0.67 z"
   inkscape:connector-curvature="0"
   style="fill:#000000;stroke-width:0" />
<path
   id="path6170"
   d="m 240.2,710.55 v -2.67 c 0,-0.45 -0.11,-0.45 -0.78,-0.45 v -0.31 c 0.35,0.02 0.86,0.04 1.13,0.04 0.25,0 0.77,-0.02 1.11,-0.04 v 0.31 c -0.67,0 -0.78,0 -0.78,0.45 v 1.83 c 0,1.04 0.71,1.59 1.35,1.59 0.63,0 0.74,-0.53 0.74,-1.1 v -2.32 c 0,-0.45 -0.11,-0.45 -0.78,-0.45 v -0.31 c 0.35,0.02 0.86,0.04 1.13,0.04 0.26,0 0.77,-0.02 1.11,-0.04 v 0.31 c -0.67,0 -0.77,0 -0.77,0.45 v 1.83 c 0,1.04 0.7,1.59 1.34,1.59 0.63,0 0.74,-0.53 0.74,-1.1 v -2.32 c 0,-0.45 -0.11,-0.45 -0.78,-0.45 v -0.31 c 0.35,0.02 0.86,0.04 1.13,0.04 0.26,0 0.78,-0.02 1.11,-0.04 v 0.31 c -0.51,0 -0.76,0 -0.77,0.3 v 1.9 c 0,0.86 0,1.17 -0.31,1.53 -0.14,0.17 -0.47,0.36 -1.05,0.36 -0.84,0 -1.28,-0.59 -1.44,-0.97 -0.14,0.86 -0.88,0.97 -1.33,0.97 -0.73,0 -1.2,-0.42 -1.48,-1.04 v 1.04 l -1.4,-0.11 v -0.3 c 0.7,0 0.78,-0.07 0.78,-0.56 z"
   inkscape:connector-curvature="0"
   style="fill:#000000;stroke-width:0" />
<path
   id="path6172"
   d="m 249.17,711.52 -1.4,-0.11 v -0.3 c 0.65,0 0.74,-0.06 0.74,-0.55 v -2.68 c 0,-0.45 -0.11,-0.45 -0.78,-0.45 v -0.31 c 0.32,0.02 0.86,0.04 1.1,0.04 0.35,0 0.69,-0.02 1.03,-0.04 v 0.31 c -0.65,0 -0.69,0.05 -0.69,0.44 z"
   inkscape:connector-curvature="0"
   style="fill:#000000;stroke-width:0" />
<path
   id="path6174"
   d="m 249.21,713.26 0,0.03 -0.01,0.02 0,0.03 -0.01,0.03 0,0.03 -0.01,0.02 -0.01,0.03 -0.01,0.02 -0.01,0.03 -0.01,0.02 -0.01,0.02 -0.02,0.02 -0.01,0.02 -0.02,0.02 -0.02,0.02 -0.01,0.02 -0.02,0.02 -0.02,0.01 -0.02,0.02 -0.02,0.01 -0.02,0.01 -0.03,0.01 -0.02,0.02 -0.02,0.01 -0.03,0 -0.02,0.01 -0.02,0.01 -0.03,0 -0.02,0.01 -0.03,0 -0.03,0 -0.02,0 c -0.31,0 -0.53,-0.26 -0.53,-0.52 0,-0.27 0.22,-0.53 0.53,-0.53 0.28,0 0.53,0.21 0.53,0.53 z"
   inkscape:connector-curvature="0"
   style="fill:#000000;stroke-width:0" />
<path
   id="path6176"
   d="m 251.27,710.55 v -2.67 c 0,-0.45 -0.11,-0.45 -0.78,-0.45 v -0.31 c 0.35,0.02 0.86,0.04 1.13,0.04 0.25,0 0.77,-0.02 1.11,-0.04 v 0.31 c -0.67,0 -0.78,0 -0.78,0.45 v 1.83 c 0,1.04 0.71,1.59 1.35,1.59 0.63,0 0.74,-0.53 0.74,-1.1 v -2.32 c 0,-0.45 -0.11,-0.45 -0.78,-0.45 v -0.31 c 0.35,0.02 0.86,0.04 1.13,0.04 0.26,0 0.77,-0.02 1.11,-0.04 v 0.31 c -0.52,0 -0.76,0 -0.77,0.3 v 1.9 c 0,0.86 0,1.17 -0.31,1.53 -0.14,0.17 -0.47,0.36 -1.05,0.36 -0.73,0 -1.2,-0.42 -1.48,-1.04 v 1.04 l -1.4,-0.11 v -0.3 c 0.7,0 0.78,-0.07 0.78,-0.56 z"
   inkscape:connector-curvature="0"
   style="fill:#000000;stroke-width:0" />
<path
   id="path6178"
   d="m 239.53,701.38 h 0.89 v 0.39 h -0.94 v 0.66 c 0,0.11 0,0.8 0.77,0.8 0.07,0 0.07,0 0.07,-0.01 0,-0.01 0,-0.02 -0.02,-0.04 -0.03,-0.04 -0.08,-0.14 -0.08,-0.28 0,-0.33 0.27,-0.48 0.47,-0.48 0.23,0 0.48,0.16 0.48,0.48 0,0.32 -0.28,0.65 -0.87,0.65 -0.81,0 -1.61,-0.32 -1.61,-1.11 v -0.67 h -0.57 v -0.39 h 0.57 v -2.31 h -0.46 v -0.39 c 0.03,0 0.56,0.03 0.89,0.03 0.27,0 0.95,-0.03 1,-0.03 v 0.39 h -0.59 z"
   inkscape:connector-curvature="0"
   style="fill:#000000;stroke-width:0" />
<path
   id="path6180"
   d="m 259.08,714.25 -0.01,0.03 0,0.03 0,0.03 0,0.02 0,0.01 0,0.02 0,0.01 0,0.01 -0.01,0.02 0,0.01 0,0.01 -0.01,0.02 0,0.01 0,0.01 -0.01,0.01 -0.01,0.01 0,0.01 -0.01,0.01 -0.01,0.01 -0.01,0.01 -0.01,0.01 0,0 -0.01,0.01 -0.01,0 0,0 -0.01,0 -0.01,0.01 0,0 -0.01,0 -0.01,0 0,0 -0.01,0.01 -0.01,0 -0.01,0 -0.01,0 -0.01,0 0,0 c -0.2,0 -0.2,-0.22 -0.2,-0.37 v -9.21 c 0,-0.16 0,-0.37 0.2,-0.37 0.2,0 0.2,0.18 0.2,0.33 z"
   inkscape:connector-curvature="0"
   style="fill:#000000;stroke-width:0" />
<path
   id="path6182"
   d="m 261.02,714.22 0,0.03 0,0.03 0,0.03 -0.01,0.04 0,0.01 0,0.02 0,0.01 0,0.02 -0.01,0.01 0,0.02 0,0.01 -0.01,0.01 0,0.02 -0.01,0.01 0,0.01 -0.01,0.01 -0.01,0.02 -0.01,0.01 -0.01,0.01 -0.01,0 0,0.01 -0.01,0 0,0.01 -0.01,0 -0.01,0 0,0 -0.01,0.01 -0.01,0 0,0 -0.01,0 -0.01,0.01 -0.01,0 0,0 -0.01,0 -0.01,0 -0.01,0 c -0.2,0 -0.2,-0.18 -0.2,-0.34 v -9.28 c 0,-0.15 0,-0.33 0.2,-0.33 0.2,0 0.2,0.22 0.2,0.37 z"
   inkscape:connector-curvature="0"
   style="fill:#000000;stroke-width:0" />
<path
   id="path6184"
   d="m 267.42,711.15 -0.01,0 0,0 0,0.01 0,0 0,0 0,0.01 0,0 -0.01,0.01 0,0 0,0.01 0,0 0,0.01 -0.01,0.01 0,0.01 -0.01,0.01 0,0.01 0,0 0,0.01 -0.01,0 0,0 0,0.01 0,0 0,0.01 0,0 0,0.01 0,0 0,0 0,0 c 0,0.01 0.18,0.15 0.28,0.23 l 1.75,1.35 c 0.94,0.68 1.33,0.72 1.62,0.75 0.08,0.01 0.18,0.02 0.18,0.2 0,0.04 -0.03,0.11 -0.11,0.11 -0.21,0 -0.46,-0.03 -0.7,-0.03 -0.36,0 -0.75,0.03 -1.11,0.03 -0.07,0 -0.19,0 -0.19,-0.2 0,-0.07 0.05,-0.1 0.12,-0.11 0.22,-0.02 0.31,-0.07 0.31,-0.2 0,-0.18 -0.3,-0.41 -0.36,-0.46 l -3.89,-2.99 0.8,3.2 c 0.09,0.36 0.11,0.45 0.84,0.45 0.25,0 0.34,0 0.34,0.2 0,0.09 -0.08,0.11 -0.14,0.11 -0.28,0 -1,-0.03 -1.28,-0.03 -0.29,0 -1,0.03 -1.28,0.03 -0.07,0 -0.2,0 -0.2,-0.19 0,-0.12 0.08,-0.12 0.29,-0.12 0.12,0 0.3,-0.01 0.42,-0.02 0.16,-0.02 0.22,-0.05 0.22,-0.16 0,-0.03 -0.01,-0.07 -0.04,-0.18 l -1.33,-5.35 c -0.1,-0.39 -0.12,-0.47 -0.91,-0.47 -0.17,0 -0.28,0 -0.28,-0.19 0,-0.12 0.12,-0.12 0.15,-0.12 0.28,0 0.99,0.04 1.27,0.04 0.21,0 0.43,-0.01 0.63,-0.01 0.22,0 0.44,-0.03 0.65,-0.03 0.07,0 0.2,0 0.2,0.2 0,0.11 -0.09,0.11 -0.28,0.11 -0.37,0 -0.64,0 -0.64,0.18 0,0.07 0.05,0.29 0.08,0.44 0.14,0.52 0.27,1.05 0.4,1.56 l 1.49,1.16 1.16,-2.68 c 0.11,-0.27 0.11,-0.29 0.11,-0.35 0,-0.3 -0.42,-0.31 -0.51,-0.31 -0.11,0 -0.22,0 -0.22,-0.2 0,-0.11 0.12,-0.11 0.14,-0.11 0.39,0 0.81,0.04 1.21,0.04 0.22,0 0.76,-0.04 0.98,-0.04 0.05,0 0.18,0 0.18,0.2 0,0.11 -0.11,0.11 -0.2,0.11 -0.41,0.01 -0.54,0.1 -0.69,0.45 z"
   inkscape:connector-curvature="0"
   style="fill:#000000;stroke-width:0" />
<path
   id="path6186"
   d="m 272.68,711.54 h -0.75 v -0.46 h 0.75 v -3.49 h -0.69 v -0.47 c 0.35,0.02 0.8,0.04 1.26,0.04 0.38,0 1.02,0 1.38,-0.04 v 0.47 h -0.87 v 3.49 h 1.14 v 0.46 h -1.2 v 1.01 c 0,1.09 0.76,1.18 1.01,1.18 0.05,0 0.1,0 0.17,-0.02 -0.15,-0.11 -0.23,-0.3 -0.23,-0.48 0,-0.43 0.34,-0.62 0.6,-0.62 0.3,0 0.62,0.21 0.62,0.62 0,0.41 -0.36,0.86 -1.13,0.86 -0.98,0 -2.06,-0.42 -2.06,-1.54 z"
   inkscape:connector-curvature="0"
   style="fill:#000000;stroke-width:0" />
<path
   id="path6188"
   d="m 284.89,709.41 0.03,0 0.03,0 0.03,0.01 0.02,0 0.01,0 0.02,0 0.01,0 0.02,0 0.01,0 0.01,0.01 0.02,0 0.01,0 0.01,0.01 0.02,0 0.01,0.01 0.01,0.01 0.01,0 0.01,0.01 0.01,0.01 0.01,0.01 0,0.01 0.01,0 0,0.01 0,0 0.01,0.01 0,0.01 0,0 0,0.01 0.01,0.01 0,0 0,0.01 0,0.01 0,0.01 0,0.01 0,0 0,0.01 0,0.01 c 0,0.2 -0.18,0.2 -0.34,0.2 h -5.4 c -0.17,0 -0.35,0 -0.35,-0.2 0,-0.2 0.18,-0.2 0.35,-0.2 z"
   inkscape:connector-curvature="0"
   style="fill:#000000;stroke-width:0" />
<path
   id="path6190"
   d="m 295.49,709.85 h -0.47 c -0.22,-1.37 -0.5,-2.26 -2.35,-2.26 h -1.51 v 2.81 h 0.55 c 0.96,0 1.06,-0.43 1.06,-1.17 h 0.46 v 2.8 h -0.46 c 0,-0.74 -0.1,-1.16 -1.06,-1.16 h -0.55 v 2.55 h 1.51 c 1.61,0 1.87,-0.72 2.03,-1.93 h 0.47 l -0.31,2.4 h -6.19 v -0.47 h 1.07 v -5.83 h -1.07 v -0.47 h 6.36 z"
   inkscape:connector-curvature="0"
   style="fill:#000000;stroke-width:0" />
<path
   id="path6192"
   d="m 297.52,714.25 0,0.03 0,0.03 0,0.03 0,0.02 0,0.01 0,0.02 -0.01,0.01 0,0.01 0,0.02 0,0.01 -0.01,0.01 0,0.02 0,0.01 -0.01,0.01 0,0.01 -0.01,0.01 -0.01,0.01 -0.01,0.01 0,0.01 -0.01,0.01 -0.01,0.01 -0.01,0 0,0.01 -0.01,0 -0.01,0 0,0 -0.01,0.01 -0.01,0 0,0 -0.01,0 -0.01,0 -0.01,0.01 0,0 -0.01,0 -0.01,0 -0.01,0 -0.01,0 c -0.2,0 -0.2,-0.22 -0.2,-0.37 v -9.21 c 0,-0.16 0,-0.37 0.2,-0.37 0.2,0 0.2,0.18 0.2,0.33 z"
   inkscape:connector-curvature="0"
   style="fill:#000000;stroke-width:0" />
<path
   id="path6194"
   d="m 299.46,714.22 0,0.03 0,0.03 0,0.03 0,0.04 0,0.01 0,0.02 0,0.01 -0.01,0.02 0,0.01 0,0.02 -0.01,0.01 0,0.01 -0.01,0.02 0,0.01 -0.01,0.01 0,0.01 -0.01,0.02 -0.01,0.01 -0.01,0.01 -0.01,0 -0.01,0.01 0,0 -0.01,0.01 0,0 -0.01,0 -0.01,0 0,0.01 -0.01,0 -0.01,0 0,0 -0.01,0.01 -0.01,0 -0.01,0 -0.01,0 -0.01,0 0,0 c -0.2,0 -0.2,-0.18 -0.2,-0.34 v -9.28 c 0,-0.15 0,-0.33 0.2,-0.33 0.19,0 0.19,0.22 0.19,0.37 z"
   inkscape:connector-curvature="0"
   style="fill:#000000;stroke-width:0" />
<path
   id="path6196"
   d="m 304.3,713.4 h -0.23 c -0.02,-0.15 -0.09,-0.56 -0.18,-0.63 -0.06,-0.05 -0.59,-0.05 -0.69,-0.05 h -1.28 c 0.73,0.65 0.97,0.85 1.39,1.17 0.51,0.41 0.99,0.84 0.99,1.51 0,0.84 -0.73,1.35 -1.63,1.35 -0.86,0 -1.44,-0.6 -1.44,-1.24 0,-0.36 0.3,-0.39 0.37,-0.39 0.16,0 0.36,0.11 0.36,0.37 0,0.12 -0.04,0.36 -0.41,0.36 0.22,0.5 0.69,0.65 1.02,0.65 0.7,0 1.06,-0.54 1.06,-1.1 0,-0.61 -0.43,-1.09 -0.65,-1.34 l -1.68,-1.65 c -0.07,-0.07 -0.07,-0.08 -0.07,-0.28 h 2.87 z"
   inkscape:connector-curvature="0"
   style="fill:#000000;stroke-width:0" />
<path
   id="path6198"
   d="m 304.3,705.4 h -0.23 c -0.02,-0.15 -0.09,-0.56 -0.18,-0.63 -0.06,-0.04 -0.59,-0.04 -0.69,-0.04 h -1.28 c 0.73,0.64 0.97,0.84 1.39,1.17 0.51,0.4 0.99,0.84 0.99,1.5 0,0.84 -0.73,1.35 -1.63,1.35 -0.86,0 -1.44,-0.6 -1.44,-1.24 0,-0.36 0.3,-0.39 0.37,-0.39 0.16,0 0.36,0.12 0.36,0.37 0,0.12 -0.04,0.37 -0.41,0.37 0.22,0.49 0.69,0.64 1.02,0.64 0.7,0 1.06,-0.54 1.06,-1.1 0,-0.61 -0.43,-1.09 -0.65,-1.34 l -1.68,-1.65 c -0.07,-0.07 -0.07,-0.08 -0.07,-0.27 h 2.87 z"
   inkscape:connector-curvature="0"
   style="fill:#000000;stroke-width:0" />
<path
   id="path6200"
   d="m 311.55,709.41 h 2.78 c 0.14,0 0.33,0 0.33,0.2 0,0.2 -0.19,0.2 -0.33,0.2 h -2.78 v 2.79 c 0,0.14 0,0.33 -0.2,0.33 -0.2,0 -0.2,-0.19 -0.2,-0.33 v -2.79 h -2.79 c -0.14,0 -0.33,0 -0.33,-0.2 0,-0.2 0.19,-0.2 0.33,-0.2 h 2.79 v -2.78 c 0,-0.14 0,-0.33 0.2,-0.33 0.2,0 0.2,0.19 0.2,0.33 z"
   inkscape:connector-curvature="0"
   style="fill:#000000;stroke-width:0" />
<path
   id="path6202"
   d="m 320.99,710.03 0.04,-0.1 0.04,-0.1 0.08,-0.21 0.08,-0.22 0.08,-0.21 0.07,-0.22 0.08,-0.22 0.08,-0.22 0.03,-0.1 0.04,-0.1 0.03,-0.1 0.04,-0.1 0.03,-0.1 0.04,-0.09 0.03,-0.08 0.03,-0.09 0.03,-0.08 0.03,-0.07 0.02,-0.07 0.03,-0.06 0.02,-0.06 0.03,-0.05 0.02,-0.05 0.02,-0.04 0.01,-0.03 0.02,-0.03 c 0.16,-0.21 0.26,-0.21 0.53,-0.21 h 0.22 c 0.1,0.01 0.11,0.07 0.11,0.09 0,0.04 -0.02,0.05 -0.05,0.1 -0.1,0.1 -0.16,0.25 -0.23,0.45 l -2.04,5.67 c -0.2,0.57 -0.74,0.7 -1.21,0.7 -0.05,0 -0.18,0 -0.18,-0.11 0,-0.08 0.08,-0.1 0.09,-0.1 0.33,-0.06 0.4,-0.12 0.65,-0.79 l 0.96,-2.71 -2.75,-2.73 c -0.12,-0.12 -0.18,-0.18 -0.18,-0.31 0,-0.17 0.14,-0.28 0.3,-0.28 0.16,0 0.25,0.1 0.33,0.21 z"
   inkscape:connector-curvature="0"
   style="fill:#000000;stroke-width:0" />
<path
   id="path6204"
   d="m 326.62,714.25 0,0.03 0,0.03 0,0.03 0,0.02 0,0.01 0,0.02 -0.01,0.01 0,0.01 0,0.02 0,0.01 -0.01,0.01 0,0.02 0,0.01 -0.01,0.01 0,0.01 -0.01,0.01 -0.01,0.01 -0.01,0.01 0,0.01 -0.01,0.01 -0.01,0.01 -0.01,0 0,0.01 -0.01,0 -0.01,0 0,0 -0.01,0.01 -0.01,0 0,0 -0.01,0 -0.01,0 -0.01,0.01 0,0 -0.01,0 -0.01,0 -0.01,0 -0.01,0 c -0.2,0 -0.2,-0.22 -0.2,-0.37 v -9.21 c 0,-0.16 0,-0.37 0.2,-0.37 0.2,0 0.2,0.18 0.2,0.33 z"
   inkscape:connector-curvature="0"
   style="fill:#000000;stroke-width:0" />
<path
   id="path6206"
   d="m 328.56,714.22 0,0.03 0,0.03 0,0.03 0,0.04 0,0.01 0,0.02 0,0.01 -0.01,0.02 0,0.01 0,0.02 -0.01,0.01 0,0.01 -0.01,0.02 0,0.01 -0.01,0.01 0,0.01 -0.01,0.02 -0.01,0.01 -0.01,0.01 -0.01,0 -0.01,0.01 0,0 -0.01,0.01 0,0 -0.01,0 -0.01,0 0,0.01 -0.01,0 -0.01,0 0,0 -0.01,0.01 -0.01,0 -0.01,0 -0.01,0 -0.01,0 -0.01,0 c -0.19,0 -0.19,-0.18 -0.19,-0.34 v -9.28 c 0,-0.15 0,-0.33 0.19,-0.33 0.2,0 0.2,0.22 0.2,0.37 z"
   inkscape:connector-curvature="0"
   style="fill:#000000;stroke-width:0" />
<path
   id="path6208"
   d="m 331.05,711.54 h -0.74 v -0.46 h 0.74 v -3.49 h -0.68 v -0.47 c 0.34,0.02 0.79,0.04 1.25,0.04 0.38,0 1.02,0 1.38,-0.04 v 0.47 h -0.87 v 3.49 h 1.15 v 0.46 h -1.21 v 1.01 c 0,1.09 0.76,1.18 1.01,1.18 0.05,0 0.1,0 0.17,-0.02 -0.15,-0.11 -0.23,-0.3 -0.23,-0.48 0,-0.43 0.35,-0.62 0.6,-0.62 0.3,0 0.62,0.21 0.62,0.62 0,0.41 -0.36,0.86 -1.13,0.86 -0.98,0 -2.06,-0.42 -2.06,-1.54 z"
   inkscape:connector-curvature="0"
   style="fill:#000000;stroke-width:0" />
<path
   id="path6210"
   d="m 336.19,714.25 0,0.03 0,0.03 0,0.03 0,0.02 0,0.01 -0.01,0.02 0,0.01 0,0.01 0,0.02 0,0.01 -0.01,0.01 0,0.02 -0.01,0.01 0,0.01 -0.01,0.01 0,0.01 -0.01,0.01 -0.01,0.01 -0.01,0.01 -0.01,0.01 -0.01,0.01 0,0 -0.01,0.01 0,0 -0.01,0 0,0 -0.01,0.01 -0.01,0 0,0 -0.01,0 -0.01,0 -0.01,0.01 -0.01,0 0,0 -0.01,0 -0.01,0 -0.01,0 c -0.2,0 -0.2,-0.22 -0.2,-0.37 v -9.21 c 0,-0.16 0,-0.37 0.2,-0.37 0.2,0 0.2,0.18 0.2,0.33 z"
   inkscape:connector-curvature="0"
   style="fill:#000000;stroke-width:0" />
<path
   id="path6212"
   d="m 338.13,714.22 0,0.03 0,0.03 0,0.03 0,0.04 0,0.01 0,0.02 -0.01,0.01 0,0.02 0,0.01 0,0.02 -0.01,0.01 0,0.01 -0.01,0.02 0,0.01 -0.01,0.01 -0.01,0.01 0,0.02 -0.01,0.01 -0.01,0.01 -0.01,0 -0.01,0.01 0,0 -0.01,0.01 0,0 -0.01,0 -0.01,0 0,0.01 -0.01,0 -0.01,0 -0.01,0 0,0.01 -0.01,0 -0.01,0 -0.01,0 -0.01,0 -0.01,0 c -0.2,0 -0.2,-0.18 -0.2,-0.34 v -9.28 c 0,-0.15 0,-0.33 0.2,-0.33 0.2,0 0.2,0.22 0.2,0.37 z"
   inkscape:connector-curvature="0"
   style="fill:#000000;stroke-width:0" />
<path
   id="path6214"
   d="m 341.79,708.56 0,0.01 0,0.01 0,0 0,0.01 0,0.01 0,0.01 0,0 0,0.01 0,0.01 0,0 0,0.01 0,0.01 -0.01,0 0,0.01 0,0 0,0.01 0,0 0,0.01 0,0.01 0,0 -0.01,0.01 0,0.01 0,0.01 -0.01,0 0,0.01 -0.01,0 -0.01,0 0,0.01 -0.01,0 -0.01,0 -0.01,0.01 -0.01,0 0,0 -0.01,0 0,0 -0.01,0 0,0 -0.01,0 -0.01,0 0,0 -0.01,0 -0.01,0 0,0 -0.01,0 -0.01,0 -0.01,0 0,0 -0.01,0 -0.01,0 -0.01,0 c -0.45,-0.43 -1.08,-0.44 -1.37,-0.44 v -0.25 c 0.17,0 0.63,0 1.01,0.19 v -3.54 c 0,-0.23 0,-0.32 -0.69,-0.32 h -0.27 v -0.25 c 0.13,0 0.98,0.02 1.24,0.02 0.22,0 1.1,-0.02 1.25,-0.02 v 0.25 h -0.27 c -0.69,0 -0.69,0.09 -0.69,0.32 z"
   inkscape:connector-curvature="0"
   style="fill:#000000;stroke-width:0" />
</g></svg>
